<svg width="368" height="70" viewBox="0 0 368 70" fill="none" xmlns="http://www.w3.org/2000/svg">
<g filter="url(#filter0_d_1033_11243)">
<rect x="6" y="6" width="356" height="58" rx="12" fill="white"/>
<rect x="6.5" y="6.5" width="355" height="57" rx="11.5" stroke="#BBBBBB"/>
<path d="M91.9999 34.2024C91.9999 33.563 91.9448 32.9507 91.8346 32.3564H83.1836V35.8412H88.1244C87.9132 36.9667 87.2611 37.9212 86.2877 38.5605V40.8207H89.254C90.9897 39.2539 91.9907 36.9487 91.9907 34.2024H91.9999Z" fill="#4285F4"/>
<path d="M83.1838 42.9997C85.6634 42.9997 87.7389 42.1893 89.2634 40.8206L86.2971 38.5605C85.4706 39.1008 84.4236 39.4159 83.1838 39.4159C80.7961 39.4159 78.7665 37.8311 78.041 35.7061H74.9736V38.0382C76.4889 40.9827 79.593 42.9997 83.1838 42.9997Z" fill="#34A853"/>
<path d="M78.0408 35.706C77.8571 35.1658 77.7561 34.5895 77.7561 33.9952C77.7561 33.4009 77.8571 32.8246 78.0408 32.2843V29.9521H74.9735C74.349 31.1678 74 32.5454 74 33.9952C74 35.4449 74.3582 36.8226 74.9735 38.0382L78.0408 35.706Z" fill="#FBBC04"/>
<path d="M83.1838 28.5748C84.5338 28.5748 85.7461 29.025 86.692 29.9255L89.3277 27.3412C87.7389 25.8914 85.6542 25 83.1838 25C79.593 25 76.4889 27.017 74.9736 29.9615L78.041 32.2936C78.7665 30.1686 80.7869 28.5838 83.1838 28.5838V28.5748Z" fill="#E94235"/>
<path d="M112.363 33.7344V39.1641C112.161 39.431 111.846 39.724 111.416 40.043C110.993 40.3555 110.43 40.6257 109.727 40.8535C109.023 41.0814 108.148 41.1953 107.1 41.1953C106.208 41.1953 105.391 41.0456 104.648 40.7461C103.906 40.4401 103.265 39.9941 102.725 39.4082C102.191 38.8223 101.777 38.1094 101.484 37.2695C101.191 36.4232 101.045 35.4596 101.045 34.3789V33.3926C101.045 32.3184 101.178 31.3613 101.445 30.5215C101.719 29.6751 102.109 28.959 102.617 28.373C103.125 27.7871 103.737 27.3444 104.453 27.0449C105.176 26.7389 105.993 26.5859 106.904 26.5859C108.07 26.5859 109.033 26.7812 109.795 27.1719C110.563 27.556 111.156 28.0898 111.572 28.7734C111.989 29.457 112.253 30.2383 112.363 31.1172H109.961C109.883 30.6224 109.73 30.1797 109.502 29.7891C109.281 29.3984 108.962 29.0924 108.545 28.8711C108.135 28.6432 107.601 28.5293 106.943 28.5293C106.377 28.5293 105.879 28.6367 105.449 28.8516C105.02 29.0664 104.661 29.3822 104.375 29.7988C104.095 30.2155 103.883 30.7233 103.74 31.3223C103.597 31.9212 103.525 32.6048 103.525 33.373V34.3789C103.525 35.1602 103.607 35.8535 103.77 36.459C103.939 37.0645 104.18 37.5755 104.492 37.9922C104.811 38.4089 105.199 38.7246 105.654 38.9395C106.11 39.1478 106.624 39.252 107.197 39.252C107.757 39.252 108.216 39.2064 108.574 39.1152C108.932 39.0176 109.215 38.9036 109.424 38.7734C109.639 38.6367 109.805 38.5065 109.922 38.3828V35.5605H106.963V33.7344H112.363ZM114.395 35.834V35.6094C114.395 34.8477 114.505 34.1413 114.727 33.4902C114.948 32.8327 115.267 32.263 115.684 31.7812C116.107 31.293 116.621 30.9154 117.227 30.6484C117.839 30.375 118.529 30.2383 119.297 30.2383C120.072 30.2383 120.762 30.375 121.367 30.6484C121.979 30.9154 122.497 31.293 122.92 31.7812C123.343 32.263 123.665 32.8327 123.887 33.4902C124.108 34.1413 124.219 34.8477 124.219 35.6094V35.834C124.219 36.5957 124.108 37.3021 123.887 37.9531C123.665 38.6042 123.343 39.1738 122.92 39.6621C122.497 40.1439 121.982 40.5215 121.377 40.7949C120.771 41.0618 120.085 41.1953 119.316 41.1953C118.542 41.1953 117.848 41.0618 117.236 40.7949C116.631 40.5215 116.117 40.1439 115.693 39.6621C115.27 39.1738 114.948 38.6042 114.727 37.9531C114.505 37.3021 114.395 36.5957 114.395 35.834ZM116.748 35.6094V35.834C116.748 36.3092 116.797 36.7585 116.895 37.1816C116.992 37.6048 117.145 37.9759 117.354 38.2949C117.562 38.6139 117.829 38.8646 118.154 39.0469C118.48 39.2292 118.867 39.3203 119.316 39.3203C119.753 39.3203 120.13 39.2292 120.449 39.0469C120.775 38.8646 121.042 38.6139 121.25 38.2949C121.458 37.9759 121.611 37.6048 121.709 37.1816C121.813 36.7585 121.865 36.3092 121.865 35.834V35.6094C121.865 35.1406 121.813 34.6979 121.709 34.2812C121.611 33.8581 121.455 33.4837 121.24 33.1582C121.032 32.8327 120.765 32.5788 120.439 32.3965C120.12 32.2077 119.74 32.1133 119.297 32.1133C118.854 32.1133 118.47 32.2077 118.145 32.3965C117.826 32.5788 117.562 32.8327 117.354 33.1582C117.145 33.4837 116.992 33.8581 116.895 34.2812C116.797 34.6979 116.748 35.1406 116.748 35.6094ZM125.742 35.834V35.6094C125.742 34.8477 125.853 34.1413 126.074 33.4902C126.296 32.8327 126.615 32.263 127.031 31.7812C127.454 31.293 127.969 30.9154 128.574 30.6484C129.186 30.375 129.876 30.2383 130.645 30.2383C131.419 30.2383 132.109 30.375 132.715 30.6484C133.327 30.9154 133.844 31.293 134.268 31.7812C134.691 32.263 135.013 32.8327 135.234 33.4902C135.456 34.1413 135.566 34.8477 135.566 35.6094V35.834C135.566 36.5957 135.456 37.3021 135.234 37.9531C135.013 38.6042 134.691 39.1738 134.268 39.6621C133.844 40.1439 133.33 40.5215 132.725 40.7949C132.119 41.0618 131.432 41.1953 130.664 41.1953C129.889 41.1953 129.196 41.0618 128.584 40.7949C127.979 40.5215 127.464 40.1439 127.041 39.6621C126.618 39.1738 126.296 38.6042 126.074 37.9531C125.853 37.3021 125.742 36.5957 125.742 35.834ZM128.096 35.6094V35.834C128.096 36.3092 128.145 36.7585 128.242 37.1816C128.34 37.6048 128.493 37.9759 128.701 38.2949C128.91 38.6139 129.176 38.8646 129.502 39.0469C129.827 39.2292 130.215 39.3203 130.664 39.3203C131.1 39.3203 131.478 39.2292 131.797 39.0469C132.122 38.8646 132.389 38.6139 132.598 38.2949C132.806 37.9759 132.959 37.6048 133.057 37.1816C133.161 36.7585 133.213 36.3092 133.213 35.834V35.6094C133.213 35.1406 133.161 34.6979 133.057 34.2812C132.959 33.8581 132.803 33.4837 132.588 33.1582C132.38 32.8327 132.113 32.5788 131.787 32.3965C131.468 32.2077 131.087 32.1133 130.645 32.1133C130.202 32.1133 129.818 32.2077 129.492 32.3965C129.173 32.5788 128.91 32.8327 128.701 33.1582C128.493 33.4837 128.34 33.8581 128.242 34.2812C128.145 34.6979 128.096 35.1406 128.096 35.6094ZM144.307 30.4336H146.445V40.707C146.445 41.6576 146.243 42.4648 145.84 43.1289C145.436 43.793 144.873 44.2975 144.15 44.6426C143.428 44.9941 142.591 45.1699 141.641 45.1699C141.237 45.1699 140.788 45.1113 140.293 44.9941C139.805 44.877 139.329 44.6882 138.867 44.4277C138.411 44.1738 138.031 43.8385 137.725 43.4219L138.828 42.0352C139.206 42.4844 139.622 42.8132 140.078 43.0215C140.534 43.2298 141.012 43.334 141.514 43.334C142.054 43.334 142.513 43.2331 142.891 43.0312C143.275 42.8359 143.571 42.5462 143.779 42.1621C143.988 41.778 144.092 41.3092 144.092 40.7559V32.8262L144.307 30.4336ZM137.129 35.834V35.6289C137.129 34.8281 137.227 34.099 137.422 33.4414C137.617 32.7773 137.897 32.2077 138.262 31.7324C138.626 31.2507 139.069 30.8828 139.59 30.6289C140.111 30.3685 140.7 30.2383 141.357 30.2383C142.041 30.2383 142.624 30.362 143.105 30.6094C143.594 30.8568 144.001 31.2116 144.326 31.6738C144.652 32.1296 144.906 32.6764 145.088 33.3145C145.277 33.946 145.417 34.6491 145.508 35.4238V36.0781C145.423 36.8333 145.28 37.5234 145.078 38.1484C144.876 38.7734 144.609 39.3138 144.277 39.7695C143.945 40.2253 143.535 40.5768 143.047 40.8242C142.565 41.0716 141.995 41.1953 141.338 41.1953C140.693 41.1953 140.111 41.0618 139.59 40.7949C139.076 40.528 138.633 40.1536 138.262 39.6719C137.897 39.1901 137.617 38.6237 137.422 37.9727C137.227 37.3151 137.129 36.6022 137.129 35.834ZM139.482 35.6289V35.834C139.482 36.3158 139.528 36.765 139.619 37.1816C139.717 37.5983 139.863 37.9661 140.059 38.2852C140.26 38.5977 140.514 38.8451 140.82 39.0273C141.133 39.2031 141.501 39.291 141.924 39.291C142.477 39.291 142.93 39.1738 143.281 38.9395C143.639 38.7051 143.913 38.3893 144.102 37.9922C144.297 37.5885 144.434 37.1393 144.512 36.6445V34.877C144.473 34.4928 144.391 34.1348 144.268 33.8027C144.15 33.4707 143.991 33.181 143.789 32.9336C143.587 32.6797 143.333 32.4844 143.027 32.3477C142.721 32.2044 142.36 32.1328 141.943 32.1328C141.52 32.1328 141.152 32.224 140.84 32.4062C140.527 32.5885 140.27 32.8392 140.068 33.1582C139.873 33.4772 139.727 33.8483 139.629 34.2715C139.531 34.6947 139.482 35.1471 139.482 35.6289ZM151.406 26V41H149.043V26H151.406ZM158.643 41.1953C157.861 41.1953 157.155 41.0684 156.523 40.8145C155.898 40.554 155.365 40.1927 154.922 39.7305C154.486 39.2682 154.15 38.7246 153.916 38.0996C153.682 37.4746 153.564 36.8008 153.564 36.0781V35.6875C153.564 34.8607 153.685 34.112 153.926 33.4414C154.167 32.7708 154.502 32.1979 154.932 31.7227C155.361 31.2409 155.869 30.873 156.455 30.6191C157.041 30.3652 157.676 30.2383 158.359 30.2383C159.115 30.2383 159.775 30.3652 160.342 30.6191C160.908 30.873 161.377 31.2311 161.748 31.6934C162.126 32.1491 162.406 32.6927 162.588 33.3242C162.777 33.9557 162.871 34.6523 162.871 35.4141V36.4199H154.707V34.7305H160.547V34.5449C160.534 34.1217 160.449 33.7246 160.293 33.3535C160.143 32.9824 159.912 32.6829 159.6 32.4551C159.287 32.2272 158.87 32.1133 158.35 32.1133C157.959 32.1133 157.611 32.1979 157.305 32.3672C157.005 32.5299 156.755 32.7676 156.553 33.0801C156.351 33.3926 156.195 33.7702 156.084 34.2129C155.98 34.6491 155.928 35.1406 155.928 35.6875V36.0781C155.928 36.5404 155.99 36.9701 156.113 37.3672C156.243 37.7578 156.432 38.0996 156.68 38.3926C156.927 38.6855 157.227 38.9167 157.578 39.0859C157.93 39.2487 158.33 39.3301 158.779 39.3301C159.346 39.3301 159.85 39.2161 160.293 38.9883C160.736 38.7604 161.12 38.4382 161.445 38.0215L162.686 39.2227C162.458 39.5547 162.161 39.8737 161.797 40.1797C161.432 40.4792 160.986 40.7233 160.459 40.9121C159.938 41.1009 159.333 41.1953 158.643 41.1953Z" fill="#333333"/>
<path d="M292.449 43.038H290.613V27H292.449V43.038ZM287.535 28.692C287.427 33.66 284.943 37.494 280.317 40.032L279.165 38.628C282.855 36.936 285.249 33.57 285.555 30.204H280.101V28.692H287.535Z" fill="#333333"/>
<path d="M272.41 36.432C272.41 38.358 270.88 39.852 268.594 39.852C266.29 39.852 264.742 38.412 264.742 36.432C264.742 34.524 266.29 33.012 268.594 33.012C270.88 33.012 272.41 34.47 272.41 36.432ZM270.592 36.432C270.592 35.298 269.746 34.524 268.594 34.524C267.424 34.524 266.596 35.298 266.596 36.432C266.596 37.548 267.424 38.34 268.594 38.34C269.836 38.34 270.592 37.548 270.592 36.432ZM273.22 32.238H263.896V30.744H273.22V32.238ZM266.164 29.448V27.936H271.024V29.448H266.164ZM276.478 27V33.588H278.962V35.136H276.478V43.038H274.624V27H276.478Z" fill="#333333"/>
<path d="M249.006 29.556V28.026H257.448V29.556H254.244V29.592C254.244 31.95 256.026 33.696 257.88 34.308L256.872 35.784C255.522 35.244 253.992 33.984 253.29 32.472C252.822 34.056 251.112 35.604 249.492 36.216L248.412 34.794C250.662 33.948 252.354 32.04 252.354 29.646V29.556H249.006ZM250.806 37.242H261.282V43.056H259.428V38.7H250.806V37.242ZM263.622 32.418H261.264V36.396H259.41V27H261.264V30.888H263.622V32.418Z" fill="#333333"/>
<path d="M246.806 43.038H244.97V27H246.806V43.038ZM243.368 37.944L242.27 39.33C240.902 38.448 239.192 36.468 238.598 34.704C238.058 36.612 236.456 38.628 234.692 39.69L233.558 38.34C236.042 36.72 237.626 34.074 237.626 31.014V28.386H239.534V30.906C239.534 33.984 241.028 36.468 243.368 37.944Z" fill="#333333"/>
<path d="M227.529 43.038H225.765V27H227.529V43.038ZM224.361 42.282H222.633V34.956H220.491V33.444H222.633V27.324H224.361V42.282ZM220.779 28.926C220.743 33.822 218.799 37.26 214.947 39.798L213.723 38.538C216.909 36.648 218.763 33.75 218.961 30.438H214.641V28.926H220.779Z" fill="#333333"/>
<path d="M213.287 40.9686H198.797V39.4926H213.287V40.9686ZM211.883 36.9726H200.651V31.8246H209.579V29.7006H200.651V28.2246H211.415V33.2826H202.505V35.4966H211.883V36.9726Z" fill="#333333"/>
<path d="M193.573 39.186H189.109V28.494H190.711V32.436H191.935V28.476H193.573V39.186ZM188.245 39.186H183.745V28.494H185.383V32.436H186.589V28.476H188.245V39.186ZM191.935 37.71V33.912H190.711V37.71H191.935ZM186.589 37.692V33.912H185.383V37.692H186.589ZM198.541 34.596H196.471V43.038H194.725V27H196.471V33.048H198.541V34.596Z" fill="#333333"/>
<path d="M177.086 36.8452H172.136V39.5272H178.49V41.0032H164V39.5272H170.3V36.8452H165.854V31.6612H174.782V29.5912H165.8V28.1152H176.618V33.1552H167.708V35.3512H177.086V36.8452Z" fill="#333333"/>
</g>
<defs>
<filter id="filter0_d_1033_11243" x="0" y="0" width="368" height="70" filterUnits="userSpaceOnUse" color-interpolation-filters="sRGB">
<feFlood flood-opacity="0" result="BackgroundImageFix"/>
<feColorMatrix in="SourceAlpha" type="matrix" values="0 0 0 0 0 0 0 0 0 0 0 0 0 0 0 0 0 0 127 0" result="hardAlpha"/>
<feOffset/>
<feGaussianBlur stdDeviation="3"/>
<feComposite in2="hardAlpha" operator="out"/>
<feColorMatrix type="matrix" values="0 0 0 0 0 0 0 0 0 0 0 0 0 0 0 0 0 0 0.15 0"/>
<feBlend mode="normal" in2="BackgroundImageFix" result="effect1_dropShadow_1033_11243"/>
<feBlend mode="normal" in="SourceGraphic" in2="effect1_dropShadow_1033_11243" result="shape"/>
</filter>
</defs>
</svg>
