<svg width="368" height="70" viewBox="0 0 368 70" fill="none" xmlns="http://www.w3.org/2000/svg">
<g filter="url(#filter0_d_1033_11188)">
<rect x="6" y="6" width="356" height="58" rx="12" fill="#FEE500" shape-rendering="crispEdges"/>
<path opacity="0.902" fill-rule="evenodd" clip-rule="evenodd" d="M93.5 26.1016C88.005 26.1016 83 30.5186 83 34.2554C83 37.0554 84.8177 39.5252 87.5862 40.9929L86.4218 45.2699C86.318 45.6491 86.7485 45.9501 87.0787 45.7319L92.1852 42.3427C92.6157 42.3847 93.0543 42.4092 93.5 42.4092C99.2983 42.4092 104 38.7587 104 34.2554C104 30.5186 99.2983 26.1016 93.5 26.1016Z" fill="black"/>
<path d="M285.905 44.4218H284.069V28.3838H285.905V44.4218ZM280.991 30.0758C280.883 35.0438 278.399 38.8778 273.773 41.4158L272.621 40.0118C276.311 38.3198 278.705 34.9538 279.011 31.5878H273.557V30.0758H280.991Z" fill="black"/>
<path d="M265.867 37.8158C265.867 39.7418 264.337 41.2358 262.051 41.2358C259.747 41.2358 258.199 39.7958 258.199 37.8158C258.199 35.9078 259.747 34.3958 262.051 34.3958C264.337 34.3958 265.867 35.8538 265.867 37.8158ZM264.049 37.8158C264.049 36.6818 263.203 35.9078 262.051 35.9078C260.881 35.9078 260.053 36.6818 260.053 37.8158C260.053 38.9318 260.881 39.7238 262.051 39.7238C263.293 39.7238 264.049 38.9318 264.049 37.8158ZM266.677 33.6218H257.353V32.1278H266.677V33.6218ZM259.621 30.8318V29.3198H264.481V30.8318H259.621ZM269.935 28.3838V34.9718H272.419V36.5198H269.935V44.4218H268.081V28.3838H269.935Z" fill="black"/>
<path d="M242.462 30.9398V29.4098H250.904V30.9398H247.7V30.9758C247.7 33.3338 249.482 35.0798 251.336 35.6918L250.328 37.1678C248.978 36.6278 247.448 35.3678 246.746 33.8558C246.278 35.4398 244.568 36.9878 242.948 37.5998L241.868 36.1778C244.118 35.3318 245.81 33.4238 245.81 31.0298V30.9398H242.462ZM244.262 38.6258H254.738V44.4398H252.884V40.0838H244.262V38.6258ZM257.078 33.8018H254.72V37.7798H252.866V28.3838H254.72V32.2718H257.078V33.8018Z" fill="black"/>
<path d="M240.262 44.4218H238.426V28.3838H240.262V44.4218ZM236.824 39.3278L235.726 40.7138C234.358 39.8318 232.648 37.8518 232.054 36.0878C231.514 37.9958 229.912 40.0118 228.148 41.0738L227.014 39.7238C229.498 38.1038 231.082 35.4578 231.082 32.3978V29.7698H232.99V32.2898C232.99 35.3678 234.484 37.8518 236.824 39.3278Z" fill="black"/>
<path d="M220.985 44.4218H219.221V28.3838H220.985V44.4218ZM217.817 43.6658H216.089V36.3398H213.947V34.8278H216.089V28.7078H217.817V43.6658ZM214.235 30.3098C214.199 35.2058 212.255 38.6438 208.403 41.1818L207.179 39.9218C210.365 38.0318 212.219 35.1338 212.417 31.8218H208.097V30.3098H214.235Z" fill="black"/>
<path d="M206.743 42.3514H192.253V40.8754H206.743V42.3514ZM205.339 38.3554H194.107V33.2074H203.035V31.0834H194.107V29.6074H204.871V34.6654H195.961V36.8794H205.339V38.3554Z" fill="black"/>
<path d="M187.029 40.5698H182.565V29.8778H184.167V33.8198H185.391V29.8598H187.029V40.5698ZM181.701 40.5698H177.201V29.8778H178.839V33.8198H180.045V29.8598H181.701V40.5698ZM185.391 39.0938V35.2958H184.167V39.0938H185.391ZM180.045 39.0758V35.2958H178.839V39.0758H180.045ZM191.997 35.9798H189.927V44.4218H188.181V28.3838H189.927V34.4318H191.997V35.9798Z" fill="black"/>
<path d="M170.542 38.23H165.592V40.912H171.946V42.388H157.456V40.912H163.756V38.23H159.31V33.046H168.238V30.976H159.256V29.5H170.074V34.54H161.164V36.736H170.542V38.23Z" fill="black"/>
<path d="M156.732 42.37H142.242V40.894H148.542V38.158C145.572 37.87 143.682 36.178 143.682 33.784C143.682 31.138 146.004 29.374 149.478 29.374C153.006 29.374 155.31 31.138 155.31 33.784C155.31 36.196 153.384 37.888 150.378 38.176V40.894H156.732V42.37ZM153.456 33.802C153.456 32.092 151.89 30.886 149.478 30.886C147.12 30.886 145.536 32.092 145.536 33.802C145.536 35.494 147.12 36.646 149.478 36.646C151.872 36.646 153.456 35.494 153.456 33.802Z" fill="black"/>
<path d="M135.146 30.0578C135.128 35.5478 132.626 39.2198 128.036 41.6318L126.848 40.2998C129.17 39.2378 131.114 37.5278 132.212 35.3138L127.514 35.8178L127.226 34.2158L132.824 33.8018C133.022 33.0818 133.166 32.3438 133.22 31.5518H128.036V30.0578H135.146ZM139.484 28.3838V34.6478H141.968V36.1778H139.484V44.4218H137.63V28.3838H139.484Z" fill="black"/>
<path d="M119.931 30.0578C119.913 35.5478 117.411 39.2198 112.821 41.6318L111.633 40.2998C113.955 39.2378 115.899 37.5278 116.997 35.3138L112.299 35.8178L112.011 34.2158L117.609 33.8018C117.807 33.0818 117.951 32.3438 118.005 31.5518H112.821V30.0578H119.931ZM124.269 28.3838V34.6478H126.753V36.1778H124.269V44.4218H122.415V28.3838H124.269Z" fill="black"/>
</g>
<defs>
<filter id="filter0_d_1033_11188" x="0" y="0" width="368" height="70" filterUnits="userSpaceOnUse" color-interpolation-filters="sRGB">
<feFlood flood-opacity="0" result="BackgroundImageFix"/>
<feColorMatrix in="SourceAlpha" type="matrix" values="0 0 0 0 0 0 0 0 0 0 0 0 0 0 0 0 0 0 127 0" result="hardAlpha"/>
<feOffset/>
<feGaussianBlur stdDeviation="3"/>
<feComposite in2="hardAlpha" operator="out"/>
<feColorMatrix type="matrix" values="0 0 0 0 0 0 0 0 0 0 0 0 0 0 0 0 0 0 0.15 0"/>
<feBlend mode="normal" in2="BackgroundImageFix" result="effect1_dropShadow_1033_11188"/>
<feBlend mode="normal" in="SourceGraphic" in2="effect1_dropShadow_1033_11188" result="shape"/>
</filter>
</defs>
</svg>
