 <svg
          width="160"
          height="36"
          viewBox="0 0 160 36"
          fill="none"
          xmlns="http://www.w3.org/2000/svg"
        >
          <path
            d="M134.896 22.959C134.937 15.0636 140.12 9.43555 148.096 9.43555C156.153 9.43555 160 16.2782 160 22.959C159.919 29.7207 155.182 35.7131 147.975 35.7131C140.444 35.7131 134.896 30.247 134.896 22.959ZM146.233 25.2264C145.91 25.8337 147.084 26.441 147.651 25.6717C148.744 24.0522 149.027 21.8658 149.068 19.8413C149.108 18.91 147.732 18.9505 147.691 19.6388C147.529 21.6228 147.205 23.2829 146.233 25.2264Z"
            fill="#F0832C"
          />
          <path
            d="M111.587 34.9432C108.55 34.6193 105.432 32.1495 105.149 27.8981C104.744 20.853 104.866 14.5366 105.189 7.41053C105.432 3.11867 108.55 0.689312 111.587 0.365397C113.652 0.162951 116.081 0.0009943 118.47 0.0009943C127.62 -0.0799832 134.261 4.77873 134.261 16.966C134.301 29.1128 127.62 35.2671 118.551 35.3076C116.122 35.3076 113.692 35.1457 111.587 34.9432ZM118.267 19.3954C117.944 20.0027 119.158 20.61 119.685 19.8407C120.778 18.3021 121.102 16.0752 121.142 14.0913C121.142 13.1195 119.725 13.16 119.725 13.8078C119.604 15.7918 119.239 17.4519 118.267 19.3954Z"
            fill="#F0832C"
          />
          <path
            d="M91.9048 11.5817C91.9048 8.22113 94.0912 6.0752 97.3304 6.0752C100.61 6.0752 102.675 8.22113 102.675 11.5817C102.675 14.416 100.408 16.4404 97.3304 16.4404C94.1317 16.4404 91.9048 14.416 91.9048 11.5817ZM91.9048 26.1174C91.9048 22.7568 94.0912 20.5703 97.3304 20.5703C100.61 20.5703 102.675 22.7568 102.675 26.1174C102.675 28.9111 100.408 30.9761 97.3304 30.9761C94.1317 30.9761 91.9048 28.9111 91.9048 26.1174Z"
            fill="#F0832C"
          />
          <path
            d="M76.5838 27.5343C76.5029 28.3845 76.4624 29.1943 76.3814 30.0041C76.0575 33.0408 74.3974 35.0248 71.0368 35.0248C67.5952 35.0248 65.8137 33.0408 65.4898 30.0041C65.2064 27.3318 65.0849 24.2141 65.0039 21.5418V14.2943C65.0039 11.379 66.9474 9.43555 69.8626 9.43555C72.1705 9.43555 74.5189 10.0834 75.3692 11.9054C73.2637 14.4562 72.211 17.4119 72.5349 20.5701C72.6564 21.5418 73.7496 21.4609 73.7091 20.6511C73.3852 16.5212 75.6526 12.1888 78.2844 10.6097C79.4586 9.92142 80.7542 9.43555 82.0904 9.43555C84.3173 9.43555 86.6252 10.1644 88.1233 11.8244C90.3907 14.2943 90.5526 17.25 90.5121 20.4891C90.4717 23.5258 90.1882 27.1698 89.5404 30.0041C88.8521 33.0408 87.3135 35.0248 83.7909 35.0248C80.2279 35.0248 78.4059 33.0408 78.0415 30.0041C77.9605 29.3158 77.8795 28.587 77.839 27.8582C77.839 26.8459 76.8673 26.7245 76.5838 27.5343Z"
            fill="#6AB23A"
          />
          <path
            d="M55.0054 32.0286C53.1834 34.7818 50.3897 35.7131 47.2315 35.7131C42.6157 35.7131 38.9717 33.2837 38.9717 28.8299C38.9717 24.781 42.0894 22.2302 46.2193 21.4204C49.9848 20.6511 52.6166 18.9505 53.9527 16.9261C54.4791 16.1163 53.3049 15.3065 52.7785 16.0758C51.1994 18.3837 48.0413 20.0842 44.5592 20.0842C41.401 20.0842 39.741 18.4242 39.741 16.1568C39.741 12.0674 45.0451 9.43555 51.3209 9.43555C57.7587 9.43555 61.4432 11.7029 63.1033 16.3997C64.5204 20.3677 64.4799 26.765 63.3462 31.7046C62.8199 34.0935 61.4432 35.3487 59.1353 35.3487C56.8679 35.3487 55.4913 34.215 55.0054 32.0286ZM48.1223 29.1538C50.0657 28.9109 51.8878 27.6152 53.3859 26.3601C54.1956 25.7122 53.1834 24.7405 52.657 25.1454C51.1185 26.441 49.6608 27.2913 47.5149 27.8177C46.8671 27.9796 47.191 29.2753 48.1223 29.1538Z"
            fill="#6AB23A"
          />
          <path
            d="M24.7389 27.8582H24.6985C24.658 28.587 24.6175 29.3158 24.5365 30.0041C24.2126 33.0408 22.3096 35.0248 18.787 35.0248C15.224 35.0248 13.4019 33.0408 13.0375 30.0041C12.9566 29.3158 12.8756 28.587 12.8351 27.8582C12.8351 26.8459 11.8634 26.7245 11.5799 27.5343C11.499 28.3845 11.4585 29.1943 11.3775 30.0041C11.0536 33.0408 9.39351 35.0248 6.0329 35.0248C2.59131 35.0248 0.809785 33.0408 0.485871 30.0041C0.202446 27.3318 0.0809785 24.2141 0 21.5418V14.2943C0 11.379 1.94348 9.43555 4.85871 9.43555C7.1666 9.43555 9.51498 10.0834 10.3653 11.9054C8.25981 14.4562 7.20709 17.4119 7.531 20.5701C7.65247 21.5418 8.74568 21.4609 8.70519 20.6511C8.38128 16.5212 10.6487 12.1483 13.2805 10.6097C14.4142 9.88093 15.7503 9.43555 17.0865 9.43555C19.3134 9.43555 21.8237 10.1239 23.3623 11.8244C21.5808 14.0918 20.8115 16.8856 20.9734 19.7603C21.1759 20.7321 22.1071 20.4486 22.1071 19.7198C21.8642 15.6709 24.2936 11.9459 26.237 10.6097C27.2493 9.92142 28.8284 9.47604 30.4884 9.47604C33.0797 9.47604 35.1852 10.4073 36.7238 12.5937C37.9384 14.3752 38.1814 16.0353 38.1409 22.0682C38.1004 25.2669 37.9384 26.9674 37.5335 30.0041C37.1287 33.0408 35.3876 35.0248 31.8651 35.0248C28.302 35.0248 26.561 33.0408 26.1966 30.0041C26.1156 29.3158 26.0346 28.6275 25.9941 27.8987C25.9941 26.7245 24.7389 26.684 24.7389 27.8582Z"
            fill="#6AB23A"
          />
        </svg>