<svg width="91" height="68" viewBox="0 0 91 68" fill="none" xmlns="http://www.w3.org/2000/svg">
<path d="M53.9922 54.9587C54.0327 47.0633 59.2153 41.4353 67.1917 41.4353C75.249 41.4353 79.0955 48.278 79.0955 54.9587C79.0145 61.7204 74.2773 67.7128 67.0702 67.7128C59.5392 67.7128 53.9922 62.2468 53.9922 54.9587ZM65.3292 57.2261C65.0053 57.8335 66.1795 58.4408 66.7463 57.6715C67.8395 56.0519 68.1229 53.8655 68.1634 51.841C68.2039 50.9098 66.8273 50.9503 66.7868 51.6386C66.6248 53.6226 66.3009 55.2826 65.3292 57.2261Z" fill="#F0832C"/>
<path d="M30.6815 66.9432C27.6448 66.6193 24.5271 64.1495 24.2437 59.8981C23.8388 52.853 23.9603 46.5366 24.2842 39.4105C24.5271 35.1187 27.6448 32.6893 30.6815 32.3654C32.7464 32.163 35.1758 32.001 37.5646 32.001C46.7152 31.92 53.3555 36.7787 53.3555 48.966C53.3959 61.1128 46.7152 67.2671 37.6456 67.3076C35.2163 67.3076 32.7869 67.1457 30.6815 66.9432ZM37.3622 51.3954C37.0383 52.0027 38.253 52.61 38.7793 51.8407C39.8725 50.3021 40.1964 48.0752 40.2369 46.0913C40.2369 45.1195 38.8198 45.16 38.8198 45.8078C38.6983 47.7918 38.3339 49.4519 37.3622 51.3954Z" fill="#F0832C"/>
<path d="M11 43.5812C11 40.2206 13.1864 38.0747 16.4256 38.0747C19.7052 38.0747 21.7701 40.2206 21.7701 43.5812C21.7701 46.4155 19.5028 48.44 16.4256 48.44C13.2269 48.44 11 46.4155 11 43.5812ZM11 58.1169C11 54.7563 13.1864 52.5699 16.4256 52.5699C19.7052 52.5699 21.7701 54.7563 21.7701 58.1169C21.7701 60.9107 19.5028 62.9756 16.4256 62.9756C13.2269 62.9756 11 60.9107 11 58.1169Z" fill="#F0832C"/>
<path d="M76.5838 18.534C76.5029 19.3843 76.4624 20.1941 76.3814 21.0039C76.0575 24.0405 74.3974 26.0245 71.0368 26.0245C67.5952 26.0245 65.8137 24.0405 65.4898 21.0039C65.2064 18.3316 65.0849 15.2139 65.0039 12.5416V5.29402C65.0039 2.37879 66.9474 0.435303 69.8626 0.435303C72.1705 0.435303 74.5189 1.08313 75.3692 2.90515C73.2637 5.45597 72.211 8.41169 72.5349 11.5699C72.6564 12.5416 73.7496 12.4606 73.7091 11.6508C73.3852 7.52093 75.6526 3.18858 78.2844 1.6095C79.4586 0.921178 80.7542 0.435303 82.0904 0.435303C84.3173 0.435303 86.6252 1.16411 88.1233 2.82418C90.3907 5.29402 90.5526 8.24973 90.5121 11.4889C90.4717 14.5256 90.1882 18.1696 89.5404 21.0039C88.8521 24.0405 87.3135 26.0245 83.7909 26.0245C80.2279 26.0245 78.4059 24.0405 78.0415 21.0039C77.9605 20.3155 77.8795 19.5867 77.839 18.8579C77.839 17.8457 76.8673 17.7242 76.5838 18.534Z" fill="#6AB23A"/>
<path d="M55.0054 23.0283C53.1834 25.7816 50.3897 26.7128 47.2315 26.7128C42.6157 26.7128 38.9717 24.2835 38.9717 19.8297C38.9717 15.7807 42.0894 13.2299 46.2193 12.4201C49.9848 11.6508 52.6166 9.95028 53.9527 7.92582C54.4791 7.11604 53.3049 6.30625 52.7785 7.07555C51.1994 9.38344 48.0413 11.084 44.5592 11.084C41.401 11.084 39.741 9.42392 39.741 7.15652C39.741 3.06711 45.0451 0.435303 51.3209 0.435303C57.7587 0.435303 61.4432 2.7027 63.1033 7.39946C64.5204 11.3674 64.4799 17.7647 63.3462 22.7044C62.8199 25.0933 61.4432 26.3484 59.1353 26.3484C56.8679 26.3484 55.4913 25.2147 55.0054 23.0283ZM48.1223 20.1536C50.0657 19.9106 51.8878 18.615 53.3859 17.3598C54.1956 16.712 53.1834 15.7403 52.657 16.1451C51.1185 17.4408 49.6608 18.2911 47.5149 18.8174C46.8671 18.9794 47.191 20.275 48.1223 20.1536Z" fill="#6AB23A"/>
<path d="M24.7389 18.8579H24.6985C24.658 19.5867 24.6175 20.3155 24.5365 21.0039C24.2126 24.0405 22.3096 26.0245 18.787 26.0245C15.224 26.0245 13.4019 24.0405 13.0375 21.0039C12.9566 20.3155 12.8756 19.5867 12.8351 18.8579C12.8351 17.8457 11.8634 17.7242 11.5799 18.534C11.499 19.3843 11.4585 20.1941 11.3775 21.0039C11.0536 24.0405 9.39351 26.0245 6.0329 26.0245C2.59131 26.0245 0.809785 24.0405 0.485871 21.0039C0.202446 18.3316 0.0809785 15.2139 0 12.5416V5.29402C0 2.37879 1.94348 0.435303 4.85871 0.435303C7.1666 0.435303 9.51498 1.08313 10.3653 2.90515C8.25981 5.45597 7.20709 8.41169 7.531 11.5699C7.65247 12.5416 8.74568 12.4606 8.70519 11.6508C8.38128 7.52093 10.6487 3.14809 13.2805 1.6095C14.4142 0.880689 15.7503 0.435303 17.0865 0.435303C19.3134 0.435303 21.8237 1.12363 23.3623 2.82418C21.5808 5.09157 20.8115 7.88533 20.9734 10.7601C21.1759 11.7318 22.1071 11.4484 22.1071 10.7196C21.8642 6.67066 24.2936 2.94564 26.237 1.6095C27.2493 0.921178 28.8284 0.475795 30.4884 0.475795C33.0797 0.475795 35.1852 1.40705 36.7238 3.59347C37.9384 5.375 38.1814 7.03506 38.1409 13.068C38.1004 16.2666 37.9384 17.9672 37.5335 21.0039C37.1287 24.0405 35.3876 26.0245 31.8651 26.0245C28.302 26.0245 26.561 24.0405 26.1966 21.0039C26.1156 20.3155 26.0346 19.6272 25.9941 18.8984C25.9941 17.7242 24.7389 17.6837 24.7389 18.8579Z" fill="#6AB23A"/>
</svg>
